<?xml version="1.0" encoding="UTF-8"?>
<svg width="286px" height="85px" viewBox="0 0 286 85" version="1.1" xmlns="http://www.w3.org/2000/svg" xmlns:xlink="http://www.w3.org/1999/xlink">
    <!-- Generator: Sketch 60.1 (88133) - https://sketch.com -->
    <title>日历</title>
    <desc>Created with Sketch.</desc>
    <defs>
        <path d="M8.452,0.405 C3.836,0.471 0.115,4.234 0.115,8.864 L0.115,8.864 L0.115,76.54 C0.115,81.212 3.902,85.001 8.574,85.001 L8.574,85.001 L277.166,85.001 C281.837,85.001 285.624,81.212 285.624,76.54 L285.624,76.54 L285.624,8.864 C285.624,4.234 281.903,0.471 277.288,0.405 L277.288,0.405 L8.452,0.405 Z" id="path-1"></path>
        <path d="M8.452,0.405 C3.836,0.471 0.115,4.234 0.115,8.864 L0.115,8.864 L0.115,76.54 C0.115,81.212 3.902,85.001 8.574,85.001 L8.574,85.001 L84.71,85.001 L84.71,0.405 L8.452,0.405 Z" id="path-3"></path>
        <path d="M31.28,0.059 C30.626,0.059 30.097,0.587 30.097,1.24 L30.097,1.24 C30.097,1.892 30.626,2.42 31.28,2.42 L31.28,2.42 L32.753,2.42 C34.547,2.42 36.008,3.876 36.008,5.663 L36.008,5.663 L36.008,28.818 C36.008,30.605 34.547,32.062 32.753,32.062 L32.753,32.062 L6.117,32.062 C4.323,32.062 2.861,30.605 2.861,28.818 L2.861,28.818 L2.861,5.663 C2.861,3.876 4.323,2.42 6.117,2.42 L6.117,2.42 L7.597,2.42 C8.252,2.42 8.779,1.892 8.779,1.24 L8.779,1.24 C8.779,0.587 8.252,0.059 7.597,0.059 L7.597,0.059 L6.117,0.059 C3.017,0.059 0.495,2.574 0.495,5.663 L0.495,5.663 L0.495,28.818 C0.495,31.906 3.017,34.421 6.117,34.421 L6.117,34.421 L32.753,34.421 C35.853,34.421 38.376,31.906 38.376,28.818 L38.376,28.818 L38.376,5.663 C38.376,2.574 35.853,0.059 32.753,0.059 L32.753,0.059 L31.28,0.059 Z" id="path-5"></path>
        <path d="M23.827,1.848 L23.827,9.221 C23.827,9.87 24.359,10.4 25.011,10.4 L25.011,10.4 C25.662,10.4 26.195,9.87 26.195,9.221 L26.195,9.221 L26.195,1.848 C26.195,1.2 25.662,0.668 25.011,0.668 L25.011,0.668 C24.359,0.668 23.827,1.2 23.827,1.848 L23.827,1.848 Z M8.723,1.848 L8.723,9.221 C8.723,9.87 9.255,10.4 9.906,10.4 L9.906,10.4 C10.558,10.4 11.09,9.87 11.09,9.221 L11.09,9.221 L11.09,1.848 C11.09,1.2 10.558,0.668 9.906,0.668 L9.906,0.668 C9.255,0.668 8.723,1.2 8.723,1.848 L8.723,1.848 Z M14.623,4.059 C13.973,4.059 13.439,4.591 13.439,5.24 L13.439,5.24 C13.439,5.889 13.973,6.42 14.623,6.42 L14.623,6.42 L20.247,6.42 C20.898,6.42 21.431,5.889 21.431,5.24 L21.431,5.24 C21.431,4.591 20.898,4.059 20.247,4.059 L20.247,4.059 L14.623,4.059 Z M0.011,16.005 L34.268,16.005 L34.268,13.646 L0.011,13.646 L0.011,16.005 Z" id="path-7"></path>
        <path d="M0.408,2.909 C0.408,4.007 1.314,4.898 2.435,4.898 L2.435,4.898 C3.555,4.898 4.462,4.007 4.462,2.909 L4.462,2.909 C4.462,1.807 3.555,0.917 2.435,0.917 L2.435,0.917 C1.314,0.917 0.408,1.807 0.408,2.909 L0.408,2.909 Z" id="path-9"></path>
        <path d="M0.408,2.938 C0.408,4.036 1.314,4.928 2.435,4.928 L2.435,4.928 C3.555,4.928 4.462,4.036 4.462,2.938 L4.462,2.938 C4.462,1.839 3.555,0.947 2.435,0.947 L2.435,0.947 C1.314,0.947 0.408,1.839 0.408,2.938 L0.408,2.938 Z" id="path-11"></path>
        <path d="M0.264,2.909 C0.264,4.007 1.171,4.898 2.291,4.898 L2.291,4.898 C3.409,4.898 4.318,4.007 4.318,2.909 L4.318,2.909 C4.318,1.807 3.409,0.917 2.291,0.917 L2.291,0.917 C1.171,0.917 0.264,1.807 0.264,2.909 L0.264,2.909 Z" id="path-13"></path>
        <path d="M0.264,2.938 C0.264,4.036 1.171,4.928 2.291,4.928 L2.291,4.928 C3.409,4.928 4.318,4.036 4.318,2.938 L4.318,2.938 C4.318,1.839 3.409,0.947 2.291,0.947 L2.291,0.947 C1.171,0.947 0.264,1.839 0.264,2.938 L0.264,2.938 Z" id="path-15"></path>
        <path d="M0.503,2.909 C0.503,4.007 1.411,4.898 2.531,4.898 L2.531,4.898 C3.65,4.898 4.559,4.007 4.559,2.909 L4.559,2.909 C4.559,1.807 3.65,0.917 2.531,0.917 L2.531,0.917 C1.411,0.917 0.503,1.807 0.503,2.909 L0.503,2.909 Z" id="path-17"></path>
        <path d="M0.503,2.938 C0.503,4.036 1.411,4.928 2.531,4.928 L2.531,4.928 C3.65,4.928 4.559,4.036 4.559,2.938 L4.559,2.938 C4.559,1.839 3.65,0.947 2.531,0.947 L2.531,0.947 C1.411,0.947 0.503,1.839 0.503,2.938 L0.503,2.938 Z" id="path-19"></path>
        <path d="M4.549,0.898 C2.212,0.898 0.319,2.791 0.319,5.128 L0.319,5.128 C0.319,7.464 2.212,9.357 4.549,9.357 L4.549,9.357 L135.672,9.357 C138.007,9.357 139.902,7.464 139.902,5.128 L139.902,5.128 C139.902,2.791 138.007,0.898 135.672,0.898 L135.672,0.898 L4.549,0.898 Z" id="path-21"></path>
        <path d="M4.549,0.817 C2.212,0.817 0.319,2.71 0.319,5.046 L0.319,5.046 C0.319,7.381 2.212,9.277 4.549,9.277 L4.549,9.277 L95.489,9.277 C97.825,9.277 99.719,7.381 99.719,5.046 L99.719,5.046 C99.719,2.71 97.825,0.817 95.489,0.817 L95.489,0.817 L4.549,0.817 Z" id="path-23"></path>
    </defs>
    <g id="页面-1" stroke="none" stroke-width="1" fill="none" fill-rule="evenodd">
        <g id="日历" transform="translate(0.000000, -1.000000)">
            <g id="编组" transform="translate(0.000000, 0.595000)">
                <mask id="mask-2" fill="white">
                    <use xlink:href="#path-1"></use>
                </mask>
                <g id="Clip-3"></g>
                <polygon id="Fill-2" fill="#FFFFFF" mask="url(#mask-2)" points="-7 90 290.624 90 290.624 -4.595 -7 -4.595"></polygon>
            </g>
            <g id="编组" transform="translate(0.000000, 0.595000)">
                <mask id="mask-4" fill="white">
                    <use xlink:href="#path-3"></use>
                </mask>
                <g id="Clip-5"></g>
                <polygon id="Fill-4" fill="#809FD2" mask="url(#mask-4)" points="-7 90 89.71 90 89.71 -4.595 -7 -4.595"></polygon>
            </g>
            <g id="编组" transform="translate(25.000000, 27.595000)">
                <mask id="mask-6" fill="white">
                    <use xlink:href="#path-5"></use>
                </mask>
                <g id="Clip-7"></g>
                <polygon id="Fill-6" fill="#FFFFFF" mask="url(#mask-6)" points="-15.08 49.996 53.951 49.996 53.951 -15.514 -15.08 -15.514"></polygon>
            </g>
            <g id="编组" transform="translate(27.000000, 23.595000)">
                <mask id="mask-8" fill="white">
                    <use xlink:href="#path-7"></use>
                </mask>
                <g id="Clip-9"></g>
                <polygon id="Fill-8" fill="#FFFFFF" mask="url(#mask-8)" points="-15.563 31.579 49.843 31.579 49.843 -14.907 -15.563 -14.907"></polygon>
            </g>
            <g id="编组" transform="translate(42.000000, 42.595000)">
                <mask id="mask-10" fill="white">
                    <use xlink:href="#path-9"></use>
                </mask>
                <g id="Clip-11"></g>
                <polygon id="Fill-10" fill="#FFFFFF" mask="url(#mask-10)" points="-15.166 20.473 20.038 20.473 20.038 -14.658 -15.166 -14.658"></polygon>
            </g>
            <g id="编组" transform="translate(42.000000, 50.595000)">
                <mask id="mask-12" fill="white">
                    <use xlink:href="#path-11"></use>
                </mask>
                <g id="Clip-13"></g>
                <polygon id="Fill-12" fill="#FFFFFF" mask="url(#mask-12)" points="-15.166 20.502 20.038 20.502 20.038 -14.628 -15.166 -14.628"></polygon>
            </g>
            <g id="编组" transform="translate(32.000000, 42.595000)">
                <mask id="mask-14" fill="white">
                    <use xlink:href="#path-13"></use>
                </mask>
                <g id="Clip-15"></g>
                <polygon id="Fill-14" fill="#FFFFFF" mask="url(#mask-14)" points="-15.31 20.473 19.893 20.473 19.893 -14.658 -15.31 -14.658"></polygon>
            </g>
            <g id="编组" transform="translate(32.000000, 50.595000)">
                <mask id="mask-16" fill="white">
                    <use xlink:href="#path-15"></use>
                </mask>
                <g id="Clip-17"></g>
                <polygon id="Fill-16" fill="#FFFFFF" mask="url(#mask-16)" points="-15.31 20.502 19.893 20.502 19.893 -14.628 -15.31 -14.628"></polygon>
            </g>
            <g id="编组" transform="translate(52.000000, 42.595000)">
                <mask id="mask-18" fill="white">
                    <use xlink:href="#path-17"></use>
                </mask>
                <g id="Clip-19"></g>
                <polygon id="Fill-18" fill="#FFFFFF" mask="url(#mask-18)" points="-15.071 20.473 20.133 20.473 20.133 -14.658 -15.071 -14.658"></polygon>
            </g>
            <g id="编组" transform="translate(52.000000, 50.595000)">
                <mask id="mask-20" fill="white">
                    <use xlink:href="#path-19"></use>
                </mask>
                <g id="Clip-21"></g>
                <polygon id="Fill-20" fill="#FFFFFF" mask="url(#mask-20)" points="-15.071 20.502 20.133 20.502 20.133 -14.628 -15.071 -14.628"></polygon>
            </g>
            <g id="编组" transform="translate(114.000000, 27.595000)">
                <mask id="mask-22" fill="white">
                    <use xlink:href="#path-21"></use>
                </mask>
                <g id="Clip-23"></g>
                <polygon id="Fill-22" fill="#DDE7F1" mask="url(#mask-22)" points="-15.256 24.932 155.474 24.932 155.474 -14.676 -15.256 -14.676"></polygon>
            </g>
            <g id="编组" transform="translate(114.000000, 44.595000)">
                <mask id="mask-24" fill="white">
                    <use xlink:href="#path-23"></use>
                </mask>
                <g id="Clip-25"></g>
                <polygon id="Fill-24" fill="#EAF2FA" mask="url(#mask-24)" points="-15.256 24.851 115.293 24.851 115.293 -14.757 -15.256 -14.757"></polygon>
            </g>
        </g>
    </g>
</svg>