<svg t="1627288803341" class="icon" viewBox="0 0 1024 1024" version="1.1" xmlns="http://www.w3.org/2000/svg" p-id="5821" width="200" height="200"><path d="M1024 544c0 265.088-214.944 480-480 480h-64C214.88 1024 0 809.088 0 544v-64C0 214.912 214.88 0 480 0h64c265.056 0 480 214.912 480 480v64z" fill="#EE7A24" p-id="5822"></path><path d="M595.072 692.8l-80.48-11.2v-0.8l-2.592 0.448-2.592-0.448v0.8l-80.416 11.2c-5.6 22.848-78.272 78.304-78.272 78.304h322.144c0 0.032-72.704-55.456-77.792-78.304z" fill="#F7F8F9" p-id="5823"></path><path d="M192 613.248v46.048c0 20.64 16.768 37.44 37.408 37.44h565.184A37.44 37.44 0 0 0 832 659.296v-46.048H192z" fill="#E7E8E9" p-id="5824"></path><path d="M832 264a37.44 37.44 0 0 0-37.408-37.408H229.408A37.44 37.44 0 0 0 192 264v349.248h640V264zM351.136 771.136h321.728v26.24H351.136z" fill="#F7F8F9" p-id="5825"></path><path d="M436.736 289.824l-47.328 123.456h132.448c0.48-56.352-35.232-104.512-85.12-123.456z" fill="#EE7A24" p-id="5826"></path><path d="M423.84 296.256a132.64 132.64 0 0 0-47.328-8.608 132.48 132.48 0 0 0 0 264.992 131.52 131.52 0 0 0 92.928-38.24l-92.928-94.208 47.328-123.936z" fill="#EE7A24" p-id="5827"></path><path d="M522.336 419.712h-132.512l92.896 94.176a130.24 130.24 0 0 0 39.616-94.176z" fill="#EE7A24" p-id="5828"></path><path d="M576.512 285.12h206.496v6.464h-206.496zM576.512 328.96h206.496v6.464h-206.496zM576.512 372.832h206.496v6.464h-206.496zM576.512 416.704h206.496v6.432h-206.496zM576.512 460.16h206.496v6.464h-206.496zM576.512 504.032h206.496v6.464h-206.496zM576.512 547.904h206.496v6.432h-206.496z" fill="#EE7A24" p-id="5829"></path></svg>