<svg t="1634397035143" class="icon" viewBox="0 0 1024 1024" version="1.1" xmlns="http://www.w3.org/2000/svg" p-id="4719" width="100" height="100"><path d="M165.5808 406.2208H430.08v227.0208H165.5808z" fill="#67DCD1" p-id="4720"></path><path d="M430.08 643.3792H175.8208a20.48 20.48 0 0 1-20.48-20.48v-204.8a20.48 20.48 0 0 1 20.48-20.48H430.08v20.48H175.8208v204.8H430.08z" fill="#3F44EC" p-id="4721"></path><path d="M291.0208 500.9408h-59.904l-72.9088-75.6736 14.7456-14.2336 66.9696 69.4272h51.0976v20.48zM322.56 480.4608H430.08v20.48H322.56zM240.2304 561.4592h51.2v20.48h-51.2z" fill="#3F44EC" p-id="4722"></path><path d="M496.64 642.2528h-20.48V386.9696a60.416 60.416 0 0 0-119.7056-12.0832l-20.48-4.1984a80.9984 80.9984 0 0 1 160.6656 16.2816z" fill="#3F44EC" p-id="4723"></path><path d="M749.2608 642.2528H476.7744v-20.48h272.4864a51.2 51.2 0 0 0 51.2-51.2V377.6512a51.2 51.2 0 0 0-51.2-51.2H608.6656v-20.48h140.5952a71.68 71.68 0 0 1 71.68 71.68v192.9216a71.68 71.68 0 0 1-71.68 71.68zM421.5808 305.9712h129.7408v20.48H421.5808z" fill="#3F44EC" p-id="4724"></path><path d="M591.36 407.8592h-20.48V200.4992h73.0112a40.96 40.96 0 0 1 0 81.92h-52.5312z m0-145.92h52.5312a20.48 20.48 0 0 0 0-40.96h-52.5312z" fill="#FDD55B" p-id="4725"></path><path d="M581.9392 477.9008a40.96 40.96 0 1 1 40.96-40.96 40.96 40.96 0 0 1-40.96 40.96z m0-61.44a20.48 20.48 0 1 0 20.48 20.48 20.48 20.48 0 0 0-20.48-20.48z" fill="#FDD55B" p-id="4726"></path><path d="M603.7504 561.4592h40.96v20.48h-40.96zM688.3328 561.4592h71.68v20.48h-71.68zM618.9056 695.7056h-40.96a56.32 56.32 0 0 1-56.32-56.32h20.48a35.84 35.84 0 0 0 35.84 35.84h40.96a35.84 35.84 0 0 0 35.84-35.84h20.48a56.4224 56.4224 0 0 1-56.32 56.32z" fill="#3F44EC" p-id="4727"></path><path d="M560.128 682.8032h20.48v174.08h-20.48zM611.328 682.8032h20.48v174.08h-20.48z" fill="#3F44EC" p-id="4728"></path></svg>