<svg t="1627552375615" class="icon" viewBox="0 0 1024 1024" version="1.1" xmlns="http://www.w3.org/2000/svg" p-id="5994" width="200" height="200"><path d="M196.053333 749.653333l137.216-137.173333a55.381333 55.381333 0 0 1 78.250667 78.250667L274.346667 827.946667h50.858666a55.338667 55.338667 0 1 1 0 110.72H85.333333v-239.872a55.338667 55.338667 0 0 1 110.72 0v50.901333z m631.893334-475.392l-137.216 137.258667a55.381333 55.381333 0 0 1-78.250667-78.250667l137.130667-137.216h-50.858667a55.338667 55.338667 0 1 1 0-110.72H938.666667v239.872a55.338667 55.338667 0 0 1-110.72 0V274.304z" p-id="5995" fill="#ffffff"></path></svg>