<svg t="1628748821499" class="icon" viewBox="0 0 1236 1024" version="1.1" xmlns="http://www.w3.org/2000/svg" p-id="11025" width="200" height="200"><path d="M1049.799363 237.377699h-414.801558l-135.49423-129.585841a9.433487 9.433487 0 0 0-6.343363-2.528283h-293.697699a36.918372 36.918372 0 0 0-36.972743 36.972744v683.950442a36.927434 36.927434 0 0 0 36.999929 36.972743h850.345912a36.918372 36.918372 0 0 0 36.972743-36.972743V274.38669a36.927434 36.927434 0 0 0-36.999929-36.972743l-0.009062-0.036248z" fill="#E2E5F1" opacity=".8" p-id="11026"></path><path d="M342.269735 578.895292a15.40531 15.40531 0 0 1 9.4063 7.226903l149.694301 259.280424a15.523115 15.523115 0 0 1-5.654655 21.200425l-269.071858 155.348956a15.532177 15.532177 0 0 1-21.218549-5.686372L3.470726 666.469947a15.532177 15.532177 0 0 1 5.686371-21.218549l178.54754-103.079646a15.668106 15.668106 0 0 1 11.825841-1.599433l142.739257 38.286725v0.036248z m-18.015151 31.32715L199.462513 576.79292 245.125664 655.885593l79.119858-45.681274 0.009062 0.018123zM270.80269 726.224425l-0.910725 57.851469-50.837523-28.001416a5.81777 5.81777 0 0 0-5.718088 0.04531l-16.166513 9.333805a5.844956 5.844956 0 0 0 0.199363 10.199221l66.274548 34.847717-2.854513 76.079575a5.799646 5.799646 0 0 0 8.735717 5.274053l14.47646-8.359646a5.844956 5.844956 0 0 0 2.949664-4.839079l1.72177-57.887717 50.810336 27.534725c1.785204 0.965097 3.941947 0.933381 5.695433-0.086088l15.749664-9.093664a5.826832 5.826832 0 0 0-0.240141-10.221876l-66.93154-34.53961 3.701805-76.428461a5.844956 5.844956 0 0 0-8.740248-5.314831l-15.020177 8.672283c-1.776142 1.024-2.881699 2.899823-2.917947 4.947823l0.022655-0.013593zM986.551504 78.712071a104.647363 104.647363 0 0 0-109.558938-22.654867l-44.584778-43.057841a23.715115 23.715115 0 0 0-14.997523-6.646938L729.214867 0.425912A11.943646 11.943646 0 0 0 716.491894 13.59292l9.039292 87.905416a23.941664 23.941664 0 0 0 7.158938 14.761912l44.593841 43.062371a104.629239 104.629239 0 0 0 26.469947 108.707116l40.642831-42.092744c1.454442 2.646088 3.307611 5.047504 5.500602 7.12269a36.302159 36.302159 0 0 0 41.336071 6.388673 54.652602 54.652602 0 0 0 69.844956-72.327929 36.148106 36.148106 0 0 0-7.797806-41.064213 34.353841 34.353841 0 0 0-7.213309-5.342017l40.570336-42.011186-0.086089 0.004531z m-194.65515-5.083752a17.951717 17.951717 0 1 1 26.420106 24.304141 17.951717 17.951717 0 0 1-26.420106-24.304141z m146.395752 81.027398a10.067823 10.067823 0 0 1-3.529628 5.487009l-5.686372 4.585345 4.485664 5.795115a28.99823 28.99823 0 0 1-39.84085 41.254513l-5.971823-4.318018-4.385982 5.844956a10.357805 10.357805 0 0 1-5.382796 3.697275 10.529982 10.529982 0 0 1-10.221877-2.55547 9.841274 9.841274 0 0 1-2.618902-10.085946l60.076177-62.205735a9.86846 9.86846 0 0 1 10.172035 2.265487c2.718584 2.637027 3.824142 6.524602 2.899823 10.19469v0.040779z" fill="#A4BFFF" opacity=".8" p-id="11027"></path><path d="M568.854655 637.915752c0 5.369204-1.903009 9.95908-5.718089 13.760567-3.810549 3.806018-8.409487 5.704496-13.801345 5.704495-5.283115 0-9.859398-1.930195-13.719787-5.781522-3.86492-3.851327-5.799646-8.414018-5.799646-13.68354 0-5.378265 1.90754-9.968142 5.722619-13.765097 3.810549-3.806018 8.409487-5.704496 13.796814-5.704496 5.391858 0 9.990796 1.903009 13.801345 5.704496 3.810549 3.801487 5.718088 8.386832 5.718089 13.760566z m75.939115 31.327151c0 5.373735-1.90754 9.95908-5.718089 13.760566-3.81508 3.806018-8.414018 5.704496-13.801345 5.704496-5.387327 0-9.986265-1.903009-13.801345-5.704496-3.810549-3.801487-5.718088-8.386832-5.718088-13.760566s1.90754-9.963611 5.718088-13.765098c3.81508-3.806018 8.414018-5.704496 13.801345-5.704495 5.391858 0 9.986265 1.903009 13.801345 5.709026 3.806018 3.796956 5.718088 8.382301 5.718089 13.760567z m-107.352354-107.066903c0 5.373735-1.903009 9.963611-5.718089 13.765097-3.810549 3.801487-8.409487 5.699965-13.796814 5.699965-5.391858 0-9.990796-1.903009-13.801345-5.699965-3.810549-3.806018-5.718088-8.391363-5.718088-13.765097 0-5.373735 1.903009-9.95908 5.718088-13.765097 3.810549-3.801487 8.409487-5.699965 13.801345-5.699965 5.387327 0 9.986265 1.903009 13.796814 5.699965 3.81508 3.806018 5.718088 8.391363 5.718089 13.765097z m183.286938 75.735221c0 5.274053-1.930195 9.832212-5.790584 13.688071-3.86492 3.851327-8.441204 5.781522-13.72885 5.781522-5.382796 0-9.986265-1.903009-13.796814-5.704495-3.810549-3.806018-5.718088-8.391363-5.718088-13.765098 0-5.373735 1.903009-9.95908 5.718088-13.760566 3.810549-3.806018 8.414018-5.704496 13.801345-5.704496 5.387327 0 9.986265 1.903009 13.796814 5.704496 3.81508 3.801487 5.718088 8.386832 5.718089 13.760566z m-146.993841-151.470442c0 6.692248-2.387823 12.414867-7.168 17.185982-4.775646 4.762053-10.52092 7.145345-17.231292 7.145345-6.705841 0-12.451115-2.383292-17.226761-7.145345-4.780177-4.766584-7.168-10.493735-7.168-17.185982 0-6.692248 2.387823-12.419398 7.168-17.185983 4.775646-4.766584 10.52092-7.149876 17.226761-7.149876 6.710372 0 12.455646 2.383292 17.231292 7.149876 4.780177 4.766584 7.168 10.493735 7.168 17.185983zM752.141593 562.176c0 5.373735-1.903009 9.963611-5.718089 13.765097-3.810549 3.801487-8.414018 5.699965-13.801345 5.699965-5.387327 0-9.986265-1.903009-13.796814-5.699965-3.81508-3.806018-5.718088-8.391363-5.718088-13.765097 0-5.373735 1.903009-9.95908 5.718088-13.765097 3.806018-3.801487 8.409487-5.699965 13.796814-5.699965 5.391858 0 9.990796 1.903009 13.801345 5.699965 3.810549 3.806018 5.718088 8.391363 5.718089 13.765097z m-97.588106-107.066903c0 8.110442-2.849982 15.006584-8.540885 20.683894-5.690903 5.67731-12.605168 8.51823-20.738266 8.51823s-15.042832-2.84092-20.738265-8.51823c-5.690903-5.67731-8.540885-12.56892-8.540885-20.683894 0-8.110442 2.849982-15.002053 8.540885-20.679362C610.231504 428.752425 617.141239 425.911504 625.274336 425.911504s15.042832 2.836389 20.738266 8.518231c5.690903 5.67731 8.540885 12.56892 8.540885 20.679362z m80.814442 31.331682c0 9.424425-3.35292 17.462372-10.063292 24.104779-6.705841 6.637876-14.739257 9.95908-24.091186 9.959079-9.456142 0-17.512212-3.321204-24.172743-9.959079-6.660531-6.642407-9.986265-14.680354-9.986266-24.104779 0-9.329274 3.330265-17.340035 9.986266-24.027752 6.660531-6.692248 14.716602-10.040637 24.172743-10.040638 9.351929 0 17.380814 3.348389 24.091186 10.040638 6.705841 6.687717 10.063292 14.698478 10.063292 24.027752z" fill="#FFFFFF" p-id="11028"></path></svg>