<svg t="1628822743215" class="icon" viewBox="0 0 1024 1024" version="1.1" xmlns="http://www.w3.org/2000/svg" p-id="4049" width="200" height="200"><path d="M832 990.378667h-640c-70.4 0-128-57.6-128-128V318.378667c0-70.4 57.6-128 128-128h640c70.4 0 128 57.6 128 128v544c0 70.4-57.6 128-128 128z" fill="#E1E1DF" p-id="4050"></path><path d="M515.2 929.621333h-256c-70.4 0-128-57.6-128-128v-640c0-70.4 57.6-128 128-128h256c70.4 0 128 57.6 128 128v640c0 70.4-57.6 128-128 128z" fill="#3296FA" p-id="4051"></path><path d="M515.2 246.4H403.2a24.618667 24.618667 0 0 1-24.021333-24.021333c0-12.8 11.221333-23.978667 24.021333-23.978667h112c12.8 0 24.021333 11.178667 24.021333 24.021333 0 12.8-9.642667 23.978667-24.021333 23.978667zM219.221333 222.421333a56.021333 56.021333 0 1 0 112 0 56.021333 56.021333 0 0 0-112 0z" fill="#FFFFFF" p-id="4052"></path><path d="M491.178667 713.6a217.6 217.6 0 1 0 435.2 0 217.6 217.6 0 0 0-435.2 0z" fill="#0D7ACC" p-id="4053"></path><path d="M721.621333 726.4v-103.978667c0-14.421333-12.8-27.221333-27.221333-27.221333-14.378667 0-27.178667 12.8-27.178667 27.221333v135.978667l116.778667 67.2c12.8 8.021333 28.8 3.2 36.821333-9.6 7.978667-12.8 3.2-28.8-9.642666-36.821333l-89.6-52.778667z m-206.421333-149.845333H241.621333a23.04 23.04 0 0 1-22.442666-22.698667v-1.578667a23.04 23.04 0 0 1 22.442666-22.698666h273.578667c12.8 0 22.4 11.349333 22.4 22.698666v1.578667c1.578667 11.349333-9.6 22.656-22.4 22.656z m-8.021333-102.954667h-256a32.085333 32.085333 0 0 1-32-32v-76.8c0-17.621333 14.421333-32 32-32h256c17.621333 0 32 14.378667 32 32v76.8c0 17.578667-14.378667 32-32 32z" fill="#FFFFFF" p-id="4054"></path></svg>