<svg t="1629271528132" class="icon" viewBox="0 0 1024 1024" version="1.1" xmlns="http://www.w3.org/2000/svg" p-id="2899" width="200" height="200"><path d="M215.04 925.184c-40.96 0-74.24-33.28-74.24-74.24V256.512c0-40.96 33.28-74.24 74.24-74.24h462.336c40.96 0 74.24 33.28 74.24 74.24v594.432c0 40.96-33.28 74.24-74.24 74.24H215.04z" fill="#FFBA40" p-id="2900"></path><path d="M677.888 206.336c27.648 0 50.176 22.528 50.176 50.176v594.432c0 27.648-22.528 50.176-50.176 50.176H215.04c-27.648 0-50.176-22.528-50.176-50.176V256.512c0-27.648 22.528-50.176 50.176-50.176h462.848m0-48.128H215.04c-54.272 0-98.304 44.032-98.304 98.304v594.432c0 54.272 44.032 98.304 98.304 98.304h462.336c54.272 0 98.304-44.032 98.304-98.304V256.512c0.512-54.272-44.032-98.304-97.792-98.304z" fill="#333333" p-id="2901"></path><path d="M215.04 841.728c-40.96 0-74.24-33.28-74.24-74.24V173.056c0-40.96 33.28-74.24 74.24-74.24h462.336c40.96 0 74.24 33.28 74.24 74.24v594.432c0 40.96-33.28 74.24-74.24 74.24H215.04z" fill="#FFBA40" p-id="2902"></path><path d="M677.888 122.88c27.648 0 50.176 22.528 50.176 50.176v594.432c0 27.648-22.528 50.176-50.176 50.176H215.04c-27.648 0-50.176-22.528-50.176-50.176V173.056c0-27.648 22.528-50.176 50.176-50.176h462.848m0-48.128H215.04c-54.272 0-98.304 44.032-98.304 98.304v594.432c0 54.272 44.032 98.304 98.304 98.304h462.336c54.272 0 98.304-44.032 98.304-98.304V173.056c0.512-54.272-44.032-98.304-97.792-98.304z" fill="#333333" p-id="2903"></path><path d="M329.728 356.864c-13.312 0-24.064-10.752-24.064-24.064V252.416c0-13.312 10.752-24.064 24.064-24.064H563.2c13.312 0 24.064 10.752 24.064 24.064V332.8c0 13.312-10.752 24.064-24.064 24.064H329.728z" fill="#27C18F" p-id="2904"></path><path d="M563.2 252.416V332.8H329.728V252.416H563.2m0-48.128H329.728c-26.624 0-48.128 21.504-48.128 48.128V332.8c0 26.624 21.504 48.128 48.128 48.128H563.2c26.624 0 48.128-21.504 48.128-48.128V252.416c0-26.624-21.504-48.128-48.128-48.128z" fill="#333333" p-id="2905"></path><path d="M378.368 695.808h136.192" fill="#FFBA40" p-id="2906"></path><path d="M514.56 719.872H378.368c-13.312 0-24.064-10.752-24.064-24.064s10.752-24.064 24.064-24.064h136.704c13.312 0 24.064 10.752 24.064 24.064s-11.264 24.064-24.576 24.064zM221.184 338.944c-13.312 0-24.064-10.752-24.064-24.064 0-30.72-25.088-55.808-55.808-55.808s-55.808 25.088-55.808 55.808c0 13.312-10.752 24.064-24.064 24.064s-24.064-10.752-24.064-24.064c0-57.344 46.592-103.936 103.936-103.936 57.344 0 103.936 46.592 103.936 103.936 0 13.312-10.752 24.064-24.064 24.064zM221.184 549.376c-13.312 0-24.064-10.752-24.064-24.064 0-30.72-25.088-55.808-55.808-55.808s-55.808 25.088-55.808 55.808c0 13.312-10.752 24.064-24.064 24.064s-24.064-10.752-24.064-24.064c0-57.344 46.592-103.936 103.936-103.936 57.344 0 103.936 46.592 103.936 103.936 0 13.312-10.752 24.064-24.064 24.064z" fill="#333333" p-id="2907"></path><path d="M221.184 758.272c-13.312 0-24.064-10.752-24.064-24.064 0-30.72-25.088-55.808-55.808-55.808s-55.808 25.088-55.808 55.808c0 13.312-10.752 24.064-24.064 24.064s-24.064-10.752-24.064-24.064c0-57.344 46.592-103.936 103.936-103.936 57.344 0 103.936 46.592 103.936 103.936 0 13.312-10.752 24.064-24.064 24.064z" fill="#333333" p-id="2908"></path><path d="M839.68 401.92c-13.312 0-24.064-10.752-24.064-24.064V157.184c0-13.312 10.752-24.064 24.064-24.064h39.424c13.312 0 24.064 10.752 24.064 24.064v220.672c0 13.312-10.752 24.064-24.064 24.064H839.68z" fill="#27C18F" p-id="2909"></path><path d="M879.616 157.184v220.672H839.68V157.184h39.936m0-47.616H839.68c-26.624 0-48.128 21.504-48.128 48.128v220.672c0 26.624 21.504 48.128 48.128 48.128h39.424c26.624 0 48.128-21.504 48.128-48.128V157.184c0-26.112-21.504-47.616-47.616-47.616z" fill="#333333" p-id="2910"></path><path d="M839.68 841.728c-13.312 0-24.064-10.752-24.064-24.064V377.856c0-13.312 10.752-24.064 24.064-24.064h39.424c13.312 0 24.064 10.752 24.064 24.064v439.808c0 13.312-10.752 24.064-24.064 24.064H839.68z" fill="#27C18F" p-id="2911"></path><path d="M879.616 377.856v439.808H839.68V377.856h39.936m0-48.128H839.68c-26.624 0-48.128 21.504-48.128 48.128v439.808c0 26.624 21.504 48.128 48.128 48.128h39.424c26.624 0 48.128-21.504 48.128-48.128V377.856c0-26.624-21.504-48.128-47.616-48.128z" fill="#333333" p-id="2912"></path><path d="M962.56 337.408c-13.312 0-24.064-10.752-24.064-24.064V183.296c0-9.728-7.68-17.408-17.408-17.408-13.312 0-24.064-10.752-24.064-24.064s10.752-24.064 24.064-24.064c35.84 0 65.024 29.184 65.024 65.024v130.048c0.512 13.824-10.24 24.576-23.552 24.576z" fill="#333333" p-id="2913"></path></svg>