<svg t="1630915072845" class="icon" viewBox="0 0 1024 1024" version="1.1" xmlns="http://www.w3.org/2000/svg" p-id="3882" width="200" height="200"><path d="M131.7 592.5h751.6v276.4H131.7z" fill="#B6F5FF" p-id="3883"></path><path d="M770.8 356h14v174.5h-14zM236.8 348.5h14V523h-14zM890.3 876H124.7V585.5h765.6V876z m-751.6-14h737.6V599.5H138.7V862z" fill="#0F13AE" p-id="3884"></path><path d="M878.8 600.8L772.6 363H607v-14h174.7l109.8 246.1zM138.8 596.7L126 591l109.9-246h174v14h-165zM676.5 809H338.4c-20.8 0-37.7-15.7-37.7-34.9v-100h413.5v100c0 19.2-16.9 34.9-37.7 34.9zM314.7 688.1v86c0 11.5 10.6 20.9 23.7 20.9h338.1c13.1 0 23.7-9.4 23.7-20.9v-86H314.7z" fill="#0F13AE" p-id="3885"></path><path d="M405.2 734.5h204.5v14H405.2zM766.8 718.9h14v13.4h-14zM234.1 718.9h14v13.4h-14z" fill="#0F13AE" p-id="3886"></path><path d="M585.5 520.2h-14V244H651L507.8 85.1 364 244h79.4v276.2h-14V258h-97L507.8 64.2 682.5 258h-97z" fill="#49A3FE" p-id="3887"></path><path d="M479.5 248.4h14v61.1h-14zM479.5 343.9h14V405h-14zM479.5 439.4h14v61.1h-14z" fill="#49A3FE" p-id="3888"></path><path d="M521.5 248.4h14v61.1h-14zM521.5 343.9h14V405h-14zM521.5 439.4h14v61.1h-14z" fill="#49A3FE" p-id="3889"></path></svg>