<svg t="1630917590439" class="icon" viewBox="0 0 1142 1024" version="1.1" xmlns="http://www.w3.org/2000/svg" p-id="6055" width="200" height="200"><path d="M934.728205 328.205128h-643.282051v538.25641c0 36.758974 30.194872 65.641026 65.641025 65.641026h577.641026c36.758974 0 65.641026-30.194872 65.641026-65.641026V393.846154c0-35.446154-28.882051-65.641026-65.641026-65.641026" fill="#F3EAED" p-id="6056"></path><path d="M863.835897 846.769231h-656.410256c-32.820513 0-59.076923-26.25641-59.076923-59.076923V236.307692c0-32.820513 26.25641-59.076923 59.076923-59.076923h656.410256c32.820513 0 59.076923 26.25641 59.076924 59.076923v551.384616c0 32.820513-26.25641 59.076923-59.076924 59.076923z m-649.846153-65.641026h643.282051v-538.25641h-643.282051v538.25641z" fill="#677BAF" p-id="6057"></path><path d="M343.958974 112.902564h39.384616v204.8h-39.384616zM515.938462 112.902564h39.384615v204.8h-39.384615zM687.917949 112.902564h39.384615v204.8h-39.384615zM181.169231 384.65641h708.923077v26.256411h-708.923077zM505.435897 481.805128h61.702565v61.702564h-61.702565zM677.415385 481.805128h61.702564v61.702564h-61.702564zM333.45641 481.805128h61.702564v61.702564h-61.702564zM505.435897 635.405128h61.702565v61.702564h-61.702565zM677.415385 635.405128h61.702564v61.702564h-61.702564zM333.45641 635.405128h61.702564v61.702564h-61.702564z" fill="#677BAF" p-id="6058"></path></svg>