<svg t="1630917317313" class="icon" viewBox="0 0 1024 1024" version="1.1" xmlns="http://www.w3.org/2000/svg" p-id="1210" width="200" height="200"><path d="M762.692 190.307h-75.2v-62.355H166.7v634.296h98.563v75.2H166.7c-41.532 0-75.2-33.668-75.2-75.2V127.952c0-41.532 33.668-75.2 75.2-75.2h520.792c41.531 0 75.2 33.668 75.2 75.2v62.355zM335.9 261.789v634.296h520.792V261.789H335.9z m0-75.2h520.792c41.531 0 75.2 33.668 75.2 75.2v634.296c0 41.531-33.669 75.2-75.2 75.2H335.9c-41.532 0-75.2-33.669-75.2-75.2V261.789c0-41.532 33.668-75.2 75.2-75.2z" fill="#4CA7FF" p-id="1211"></path><path d="M429.9 400.692h263.2c20.766 0 37.6 16.834 37.6 37.6 0 20.766-16.834 37.6-37.6 37.6H429.9c-20.766 0-37.6-16.834-37.6-37.6 0-20.766 16.834-37.6 37.6-37.6z m0 178.245h150.4c20.766 0 37.6 16.834 37.6 37.6 0 20.766-16.834 37.6-37.6 37.6H429.9c-20.766 0-37.6-16.834-37.6-37.6 0-20.766 16.834-37.6 37.6-37.6z" fill="#A5E8D0" p-id="1212"></path></svg>