<svg t="1628650920084" class="icon" viewBox="0 0 1024 1024" version="1.1" xmlns="http://www.w3.org/2000/svg" p-id="1160" width="200" height="200"><path d="M0 0m96 0l832 0q96 0 96 96l0 832q0 96-96 96l-832 0q-96 0-96-96l0-832q0-96 96-96Z" fill="#20A0FF" p-id="1161"></path><path d="M576 704c-61.248 21.632-140.8 32-192 0 9.6-16 32-64 32-64H256l64 160 32-64c73.888 48.288 169.024 37.76 256 0 76.224-33.056 141.888-130.272 128-256h-32s5.888 176.64-128 224z m-158.688-384c60.992-21.664 140.192-32 191.2 0-9.6 16-32 64-32 64H736l-63.744-160-32 64c-73.6-48.288-168.32-37.728-254.944 0-75.904 33.088-141.312 130.304-127.456 256h32s-5.888-176.768 127.456-224z" fill="#FFFFFF" p-id="1162"></path></svg>