<svg t="1629085267345" class="icon" viewBox="0 0 1024 1024" version="1.1" xmlns="http://www.w3.org/2000/svg" p-id="10984" width="200" height="200"><path d="M519.78752 63.97952c-247.39328 0-448.02048 200.6272-448.02048 448.02048s200.6272 448.02048 448.02048 448.02048c247.38816 0 448.02048-200.63232 448.02048-448.02048s-200.6272-448.02048-448.02048-448.02048z" fill="#2273C0" p-id="10985"></path><path d="M608.32256 494.75584l148.40832-144.70656a23.26528 23.26528 0 0 1 6.8608 16.40448v291.31776c0 6.07232-2.36032 11.45856-6.17984 15.62112l-149.08928-178.6368zM283.63264 349.37344a22.3744 22.3744 0 0 1 15.27808-5.95456h441.75872a22.5792 22.5792 0 0 1 15.27808 5.95456l-236.16 185.71776-236.15488-185.71776zM282.16832 673.26976a22.656 22.656 0 0 1-6.17984-15.60576v-291.328c0-6.4 2.5856-12.1344 6.85568-16.39936L431.2576 494.6432l-149.08928 178.62656z" fill="#FFFFFF" p-id="10986"></path><path d="M519.78752 581.03296l62.00832-60.44672 174.60224 153.69728a22.272 22.272 0 0 1-15.62112 6.29248H298.91072a22.7584 22.7584 0 0 1-15.616-6.29248l174.58688-153.69728 61.90592 60.44672z" fill="#FFFFFF" p-id="10987"></path></svg>