<svg t="1629085164691" class="icon" viewBox="0 0 1024 1024" version="1.1" xmlns="http://www.w3.org/2000/svg" p-id="8852" width="200" height="200"><path d="M512.036571 512m-512 0a512 512 0 1 0 1024 0 512 512 0 1 0-1024 0Z" fill="#83CD5F" p-id="8853"></path><path d="M669.293714 328.265143H354.011429c-33.773714 0-50.194286 16.64-50.194286 49.956571v199.862857c0 33.28 15.414857 49.042286 48.329143 49.042286h48.347428l-5.961143 50.870857c0 6.144 3.401143 11.776 8.850286 14.646857a16.585143 16.585143 0 0 0 17.152-0.804571l95.963429-64.731429h154.678857c33.462857 0 48.329143-15.725714 48.329143-49.042285V378.221714c0-33.298286-16.731429-49.956571-50.194286-49.956571zM415.085714 501.869714a24.137143 24.137143 0 0 1-24.118857-24.082285 24.137143 24.137143 0 0 1 48.237714 0 24.137143 24.137143 0 0 1-24.118857 24.082285z m96.530286 0a24.192 24.192 0 0 1-24.246857-24.082285 24.228571 24.228571 0 0 1 48.475428 0c0 13.312-10.916571 24.082286-24.228571 24.082285z m96.658286 0a24.155429 24.155429 0 0 1-24.210286-24.082285c0-13.275429 10.843429-24.137143 24.210286-24.137143 13.366857 0 24.246857 10.825143 24.246857 24.137143 0 13.312-10.88 24.082286-24.246857 24.082285z" fill="#FFFFFF" p-id="8854"></path></svg>