<?xml version="1.0" encoding="utf-8"?>
<!-- Generator: Adobe Illustrator 23.0.0, SVG Export Plug-In . SVG Version: 6.00 Build 0)  -->
<svg version="1.1" id="图层_1" xmlns="http://www.w3.org/2000/svg" xmlns:xlink="http://www.w3.org/1999/xlink" x="0px" y="0px"
	 viewBox="0 0 300 300" style="enable-background:new 0 0 300 300;" xml:space="preserve">
<style type="text/css">
	.st0{fill:#FBE3C0;}
	.st1{fill:#57B894;}
	.st2{fill:#2F2E41;}
	.st3{fill:#9362AC;}
	.st4{fill:#F86D70;}
	.st5{fill:#424242;}
	.st6{fill:#DCDDDD;}
	.st7{fill:#606060;}
	.st8{fill:#F5A800;}
	.st9{fill:#545E60;}
	.st10{fill:#A6AAB2;}
	.st11{fill:#1C0D3A;}
	.st12{fill:#FBBEBE;}
	.st13{fill:#505ED0;}
	.st14{fill:#FFFFFF;}
	.st15{opacity:0.1;enable-background:new    ;}
	.st16{fill:#FFB338;}
	.st17{fill:#F0E4ED;}
	.st18{fill:none;stroke:#2F2E41;stroke-width:3;stroke-miterlimit:10;}
	.st19{fill:#7C8189;}
	.st20{clip-path:url(#SVGID_2_);fill:#505ED0;}
	.st21{fill:#F56A56;}
	.st22{fill:#FFFAEC;}
	.st23{fill:#605D55;}
	.st24{opacity:0.8;fill:#1C0D3A;}
	.st25{fill:#F7F8F8;}
	.st26{fill:#AD9A85;}
	.st27{fill:#7D6E5A;}
	.st28{clip-path:url(#SVGID_4_);}
	.st29{fill:#DB2D43;stroke:#F7F8F8;stroke-width:4;stroke-miterlimit:10;}
	.st30{fill:#87E5DA;stroke:#F7F8F8;stroke-width:4;stroke-miterlimit:10;}
	.st31{fill:#F7AA00;stroke:#F7F8F8;stroke-width:4;stroke-miterlimit:10;}
	.st32{fill:none;stroke:#F7F8F8;stroke-width:4;stroke-linecap:round;stroke-linejoin:round;stroke-miterlimit:10;}
	.st33{fill:#C7F2E3;stroke:#F7F8F8;stroke-width:4;stroke-miterlimit:10;}
	.st34{clip-path:url(#SVGID_6_);}
	.st35{fill:#FFEAA5;}
	.st36{fill:#226B80;stroke:#FFFFFF;stroke-width:5;stroke-miterlimit:10;}
	.st37{fill:#FFEBD3;stroke:#FFFFFF;stroke-width:5;stroke-miterlimit:10;}
	.st38{fill:#40A798;stroke:#FFFFFF;stroke-width:5;stroke-miterlimit:10;}
	.st39{fill:#FFEAA5;stroke:#FFFFFF;stroke-width:5;stroke-miterlimit:10;}
	.st40{clip-path:url(#SVGID_8_);}
	.st41{fill:#6CBBB3;}
	.st42{fill:#60512D;}
	.st43{fill:#EFE784;}
	.st44{fill:#AE7C7C;}
	.st45{fill:#3E3838;}
	.st46{clip-path:url(#SVGID_10_);}
	.st47{fill:#6C5CE7;}
	.st48{fill:#FDCB6E;}
	.st49{fill:#47416D;}
	.st50{fill:#FFF3B1;}
	.st51{fill:#7B88FF;}
</style>
<rect x="-7.5" y="-7.5" class="st4" width="314.9" height="314.9"/>
<ellipse transform="matrix(1.870418e-03 -1 1 1.870418e-03 12.1837 282.0646)" class="st2" cx="147.4" cy="134.9" rx="97.7" ry="72"/>
<ellipse transform="matrix(0.1188 -0.9929 0.9929 0.1188 4.1552 143.0372)" class="st2" cx="82.7" cy="69.2" rx="27.8" ry="27.4"/>
<ellipse transform="matrix(0.1188 -0.9929 0.9929 0.1188 118.2329 271.5746)" class="st2" cx="212.1" cy="69.2" rx="27.8" ry="27.4"/>
<path class="st2" d="M183.9,194c-26.6,7.6-46.8,6.5-58.3,4.5c0.1,2.4,0,4.8-0.2,7.1c1.3,0.2,2.8,0.4,4.3,0.6
	c12.8,1.5,32.2,1.4,56.9-5.9L183.9,194z"/>
<path class="st12" d="M33.7,300c3.6-9.3,2.9-61.4,21.9-63.5c0.1,0,12-2.2,12.1-2.2c2.7-0.7,44.8-8.1,50.4-24.5
	c1.1-3.1,2-5.9,2.8-8.5c0.6-2,1.1-3.9,1.6-5.7c0.9-3.6,1.5-7.3,1.8-11.1c0.2-4.3-0.2-8.6-1.3-12.8c-1.6-6.4,52.7-6.4,51.1,0
	c-1.1,4.1-1.5,8.5-1.3,12.8c0.3,3.8,0.9,7.5,1.8,11.1c0.5,1.8,1,3.7,1.6,5.7c0.8,2.6,1.7,5.4,2.8,8.5c5.7,16.4,47.7,23.8,50.4,24.5
	c0.1,0,12,2.2,12.1,2.2c18.9,2.1,18.3,54.1,21.9,63.5H33.7z"/>
<ellipse transform="matrix(0.9929 -0.1188 0.1188 0.9929 -15.4382 18.6404)" class="st15" cx="148.7" cy="138.8" rx="48.8" ry="52.3"/>
<ellipse transform="matrix(0.9929 -0.1188 0.1188 0.9929 -14.8068 18.6027)" class="st12" cx="148.7" cy="133.5" rx="48.8" ry="52.3"/>
<path class="st8" d="M268.4,300v-27.1c0-2.9-0.8-5.7-2.2-8.1c-2.8-4.6-7.2-12.8-7.1-17.9c0-7.6-191.1,21.5-191.1,21.5
	s-24,3.5-33.4,5.3c-2.7,0.5-4.3,24.1-5.3,26.4H268.4z"/>
<ellipse transform="matrix(0.1188 -0.9929 0.9929 0.1188 62.216 240.5859)" class="st2" cx="166.6" cy="85.2" rx="33.5" ry="43.9"/>
<path class="st2" d="M177.8,195.1c-27.2,5.3-47.1,2.4-58.5-0.6c-0.1,2.4-0.4,4.7-0.8,7.1c1.3,0.3,2.7,0.7,4.3,1
	c12.6,2.6,32,4.3,57.2-0.9L177.8,195.1z"/>
</svg>
