<?xml version="1.0" encoding="utf-8"?>
<!-- Generator: Adobe Illustrator 23.0.0, SVG Export Plug-In . SVG Version: 6.00 Build 0)  -->
<svg version="1.1" id="图层_1" xmlns="http://www.w3.org/2000/svg" xmlns:xlink="http://www.w3.org/1999/xlink" x="0px" y="0px"
	 viewBox="0 0 300 300" style="enable-background:new 0 0 300 300;" xml:space="preserve">
<style type="text/css">
	.st0{fill:#FBE3C0;}
	.st1{fill:#57B894;}
	.st2{fill:#2F2E41;}
	.st3{fill:#9362AC;}
	.st4{fill:#F86D70;}
	.st5{fill:#424242;}
	.st6{fill:#DCDDDD;}
	.st7{fill:#606060;}
	.st8{fill:#F5A800;}
	.st9{fill:#545E60;}
	.st10{fill:#A6AAB2;}
	.st11{fill:#1C0D3A;}
	.st12{fill:#FBBEBE;}
	.st13{fill:#505ED0;}
	.st14{fill:#FFFFFF;}
	.st15{opacity:0.1;enable-background:new    ;}
	.st16{fill:#FFB338;}
	.st17{fill:#F0E4ED;}
	.st18{fill:none;stroke:#2F2E41;stroke-width:3;stroke-miterlimit:10;}
	.st19{fill:#7C8189;}
	.st20{clip-path:url(#SVGID_2_);fill:#505ED0;}
	.st21{fill:#F56A56;}
	.st22{fill:#FFFAEC;}
	.st23{fill:#605D55;}
	.st24{opacity:0.8;fill:#1C0D3A;}
	.st25{fill:#F7F8F8;}
	.st26{fill:#AD9A85;}
	.st27{fill:#7D6E5A;}
	.st28{clip-path:url(#SVGID_4_);}
	.st29{fill:#DB2D43;stroke:#F7F8F8;stroke-width:4;stroke-miterlimit:10;}
	.st30{fill:#87E5DA;stroke:#F7F8F8;stroke-width:4;stroke-miterlimit:10;}
	.st31{fill:#F7AA00;stroke:#F7F8F8;stroke-width:4;stroke-miterlimit:10;}
	.st32{fill:none;stroke:#F7F8F8;stroke-width:4;stroke-linecap:round;stroke-linejoin:round;stroke-miterlimit:10;}
	.st33{fill:#C7F2E3;stroke:#F7F8F8;stroke-width:4;stroke-miterlimit:10;}
	.st34{clip-path:url(#SVGID_6_);}
	.st35{fill:#FFEAA5;}
	.st36{fill:#226B80;stroke:#FFFFFF;stroke-width:5;stroke-miterlimit:10;}
	.st37{fill:#FFEBD3;stroke:#FFFFFF;stroke-width:5;stroke-miterlimit:10;}
	.st38{fill:#40A798;stroke:#FFFFFF;stroke-width:5;stroke-miterlimit:10;}
	.st39{fill:#FFEAA5;stroke:#FFFFFF;stroke-width:5;stroke-miterlimit:10;}
	.st40{clip-path:url(#SVGID_8_);}
	.st41{fill:#6CBBB3;}
	.st42{fill:#60512D;}
	.st43{fill:#EFE784;}
	.st44{fill:#AE7C7C;}
	.st45{fill:#3E3838;}
	.st46{clip-path:url(#SVGID_10_);}
	.st47{fill:#6C5CE7;}
	.st48{fill:#FDCB6E;}
	.st49{fill:#47416D;}
	.st50{fill:#FFF3B1;}
	.st51{fill:#7B88FF;}
</style>
<rect x="-7.1" y="-7.3" class="st8" width="314.8" height="314.8"/>
<path class="st11" d="M189.6,271h-85.1c-15.7,0-33.7-12.8-33.7-28.5L75.9,109c0-36.4,29.5-65.8,65.8-65.8h10.5
	c36.4,0,65.8,29.5,65.8,65.8l5.2,133.5C223.2,258.3,205.3,271,189.6,271z"/>
<path class="st12" d="M31.7,299.9c3.9-10.4,16.2-55,37.1-57.4c0.2,0,0.3-3.1,0.5-3.2c3-0.8,37.8-9,44-27.2c1.2-3.4,2.2-6.5,3.1-9.4
	c0.7-2.2,1.3-4.3,1.8-6.3c1-4,1.7-8.1,2-12.3c0.3-4.8-0.2-9.6-1.4-14.2c-1.8-7.1,58.3-7.1,56.6,0c-1.2,4.6-1.7,9.4-1.4,14.2
	c0.3,4.2,1,8.3,2,12.3c0.5,2,1.1,4.1,1.8,6.3c0.9,2.9,1.9,6,3.1,9.4c6.3,18.2,41.1,26.4,44,27.2c0.2,0,0.3,3.2,0.5,3.2
	c21,2.3,33.2,47,37.1,57.4H31.7z"/>
<ellipse transform="matrix(0.1188 -0.9929 0.9929 0.1188 -15.4276 274.6563)" class="st15" cx="147" cy="146" rx="54.3" ry="50.7"/>
<ellipse transform="matrix(0.1188 -0.9929 0.9929 0.1188 -9.9526 269.7972)" class="st12" cx="147" cy="140.5" rx="54.3" ry="50.7"/>
<ellipse transform="matrix(0.1188 -0.9929 0.9929 0.1188 58.1047 238.0327)" class="st11" cx="163.2" cy="86.3" rx="32.5" ry="42.6"/>
<path class="st17" d="M235.6,242.6c-0.2,0-10.6-3.1-10.8-3.2c-2.1-0.6-21.1-5.1-33.7-14.5L148,235.7L103,225
	c-12.6,9.4-31.6,13.9-33.7,14.5c-0.2,0-10.6,3.2-10.8,3.2c-21,2.3-22.9,47-26.8,57.4h230.7C258.4,289.6,256.5,245,235.6,242.6z"/>
<g>
	<g>
		<polygon class="st17" points="110.6,216.7 148,235.7 184,216.7 148,274.4 		"/>
		<polygon class="st22" points="148,235.7 184,216.7 194.5,226 171.2,245.7 		"/>
		<polygon class="st22" points="148,235.7 109.9,216.7 101.4,225 124.7,245.7 		"/>
	</g>
	<circle class="st23" cx="148.4" cy="244.2" r="3.2"/>
	<circle class="st23" cx="148.4" cy="278.1" r="3.2"/>
</g>
<rect x="153.9" y="237" class="st22" width="1.9" height="62.9"/>
</svg>
