<svg t="1628473577679" class="icon" viewBox="0 0 1024 1024" version="1.1" xmlns="http://www.w3.org/2000/svg" p-id="2160" width="200" height="200"><path d="M512 0C329.080533 0 160.055467 97.586133 68.5952 256c-91.460267 158.413867-91.460267 353.586133 0 512C160.055467 926.413867 329.080533 1024 512 1024c282.770133 0 512-229.229867 512-512S794.770133 0 512 0z m-3.2768 179.4048c55.12 0 106.052267 29.405867 133.6128 77.141333 27.559467 47.735467 27.559467 106.5472 0 154.282667-27.560533 47.735467-78.4928 77.141333-133.6128 77.141333-85.207467 0-154.282667-69.0752-154.282667-154.282666 0-85.207467 69.0752-154.282667 154.282667-154.282667zM238.933333 791.620267c-1.570133-158.1056 75.707733-256.273067 172.578134-294.843734l99.464533 165.956267 104.789333-162.133333c93.457067 40.96 167.7312 137.966933 169.233067 291.157333-171.8272 68.130133-352.938667 73.045333-546.065067-0.136533z" fill="#E6E6E6" p-id="2161"></path></svg>